#!OML:ASF F:\VICON\USERDATA\INSTALL\rory3\rory3.ASF
:FULLY-SPECIFIED
:DEGREES
89
root 0.44220427432405307 17.326818593195018 36.73829422136096 1.3998074790484019 -0.48111052289559975 -0.814283319937439
lfemur -22.839020097754187 2.937544261647921 -17.783111177389898
ltibia 73.75046271086214
lfoot 2.1015661527249554 -9.94209748073548
ltoes -9.808752188052987
rfemur -20.741426681720615 3.326589639622001 28.732462296447228
rtibia 63.70285233088323
rfoot -4.677740060952815 -6.772792295832024
rtoes -4.0754754527190125
lowerback 14.407029701338434 0.49101956553343257 2.4761639244000566
upperback -0.08240468405457607 2.141028021234714 2.3762193023871117
thorax -8.389889271436909 1.226121481702195 0.5280192536298457
lowerneck -19.120656009168297 -3.8758529741736334 -2.1358036666949247
upperneck 13.55763421876273 -5.538929869890411 2.584682891457135
head 7.448214452095935 -2.181034011335611 0.701102227336921
lclavicle 3.0724827264545893e-16 -4.3067221206564905e-16
lhumerus -50.154657335565894 -12.958289070192773 98.70787128151834
lradius 110.02254119902724
lwrist 32.43885983593391
lhand -25.659563101755925 3.0633817710727644
lfingers 7.125020000000001
lthumb 0.46676832031457105 32.83091187321894
rclavicle 3.0728743657241976e-16 -4.3064985682852227e-16
rhumerus -44.785553870951006 6.214015721149252 -95.24833086680125
rradius 102.59807762999787
rwrist -19.428328406006074
rhand -18.504637794212876 37.54116588796497
rfingers 7.125020000000001
rthumb 7.842194676543887 7.633459242467549
90
root 0.43950917765814784 17.33946028305761 35.976067472010946 1.5024067082689179 -0.45916853984025197 -1.1203628070708824
lfemur -23.116018162205197 2.9698738097538944 -17.542815337287124
ltibia 71.48238612807617
lfoot 1.2293170783531273 -10.320355713234328
ltoes -9.599807508647668
rfemur -17.87914971991203 3.839292054038859 29.260728479872387
rtibia 61.65447862477345
rfoot -4.914370134671403 -7.038814990711284
rtoes -4.08913448543705
lowerback 14.302440404447745 0.6205220092241556 2.8426315082407356
upperback -0.14713583246056633 2.362966186399798 2.3617029816399153
thorax -8.394947253469716 1.3296238614198632 0.32873794555782676
lowerneck -19.040894701799687 -3.975097291412832 -2.1236044517790766
upperneck 13.527452223350949 -5.757977411794163 2.616700087756395
head 7.437747437149658 -2.2152442455278845 0.6934772180048405
lclavicle 3.0724827264545893e-16 -4.3067221206564905e-16
lhumerus -50.70414178690956 -12.912628468535699 98.65757444786446
lradius 110.54950668209486
lwrist 32.29100446812861
lhand -25.718116194343434 3.0209008608592156
lfingers 7.125020000000001
lthumb 0.5511556962358356 32.97597282821884
rclavicle 3.0728743657241976e-16 -4.3064985682852227e-16
rhumerus -43.28233505166915 6.564762697592986 -95.26460581125558
rradius 102.8534361276546
rwrist -19.35385945065323
rhand -18.547313450140386 37.51315615166081
rfingers 7.125020000000001
rthumb 7.860417819859844 7.651529152915166
91
root 0.4625631917604707 17.4339334547209 37.41595488620003 1.769936699039733 -0.06640325592776997 -1.199894099608863
lfemur -25.303019684535833 2.616774473264658 -17.963269625575677
ltibia 68.16285399003539
lfoot 0.6038772446151708 -9.950497189109546
ltoes -9.4750372019521
rfemur -17.239623467819314 3.77056139415616 29.59506652320046
rtibia 59.59959654010697
rfoot -5.148597327605924 -7.182775990281272
rtoes -3.8359990516112408
lowerback 14.107252390729144 0.7175087281597291 3.1076498035869484
upperback -0.22459800613098435 2.5279199516724953 2.30611828510417
thorax -8.407069251107544 1.3729055499842597 0.04464611180831901
lowerneck -18.954722721229487 -4.097226497545147 -2.1131851261435006
upperneck 13.546139222029792 -5.922859910571537 2.6730488272101955
head 7.428272087647303 -2.2643906529902176 0.6840031313153835
lclavicle 3.0724827264545893e-16 -4.3067221206564905e-16
lhumerus -51.39564197331252 -12.909735066880874 98.65490596178667
lradius 110.59268309774343
lwrist 32.176353734269966
lhand -25.71213667092103 3.091549869222877
lfingers 7.125020000000001
lthumb 0.5503182006880034 32.96228662771177
rclavicle 3.0728743657241976e-16 -4.3064985682852227e-16
rhumerus -41.899297729517386 6.926786072995774 -95.22523592522475
rradius 103.20980034528469
rwrist -19.290493635619185
rhand -18.502168839505437 37.52186814984319
rfingers 7.125020000000001
rthumb 7.874849752530228 7.6290555265779725
92
root 0.4746310326921521 17.503006044778658 37.05900943798637 1.8967505395594402 0.12090881505514939 -1.4186438575674065
lfemur -26.681541281633805 2.2241423775934495 -18.400272609333857
ltibia 63.88253680757394
lfoot 0.3637606662889761 -9.264695144406737
ltoes -9.026397579370501
rfemur -17.498090522152175 3.651650647886077 29.17055629129636
rtibia 57.70866341678973
rfoot -5.691888989395021 -7.375611272992631
rtoes -3.5700955734947417
lowerback 13.852305078802727 0.7734164234006251 3.262306194968464
upperback -0.2812680666423885 2.701868635961861 2.267081112188052
thorax -8.396946445660424 1.382463220665755 -0.22001820453963253
lowerneck -18.76529417141507 -4.178890856342299 -2.121158167535978
upperneck 13.58753727070173 -6.046588883642164 2.7422350009375043
head 7.4246483844188065 -2.309118371076192 0.6780735797557136
lclavicle 3.0724827264545893e-16 -4.3067221206564905e-16
lhumerus -51.19806817681278 -12.821367071369794 98.64839692641013
lradius 110.47056453867937
lwrist 32.038720784868964
lhand -25.701364874235562 3.1159601698293407
lfingers 7.125020000000001
lthumb 0.636989564872739 33.09906669694526
rclavicle 3.0728743657241976e-16 -4.3064985682852227e-16
rhumerus -40.704673181096766 7.287520454993032 -95.20036156185876
rradius 103.49516445026873
rwrist -19.258626288106257
rhand -18.5143295167468 37.50789668328534
rfingers 7.125020000000001
rthumb 7.855349540256373 7.600739072556567
93
root 0.4990050400266564 17.605980417722193 37.95384922491448 2.0937908044635187 0.4888808409366524 -1.4906765964056814
lfemur -28.276673940159757 1.7462615031718092 -18.84878235717344
ltibia 59.045825722487336
lfoot 0.15709639692057142 -8.884813501833149
ltoes -8.833930117862417
rfemur -14.2290090963524 4.069997226359547 29.917997164563918
rtibia 55.813056810237555
rfoot -5.589787471000355 -7.430117867905496
rtoes -3.448926361327737
lowerback 13.597804398444772 0.832006081717847 3.3791389223528894
upperback -0.3623197270242338 2.8515907399258897 2.175933324704098
thorax -8.275950188796951 1.5004934848113543 -0.17219475190949643
lowerneck -18.649825103929995 -4.296903760901181 -2.1473690640761074
upperneck 13.632013414195736 -6.1314361967823325 2.809792299699251
head 7.413147488842456 -2.363799425390849 0.6688706537922435
lclavicle 3.0724827264545893e-16 -4.3067221206564905e-16
lhumerus -50.41505832823492 -12.419029724510176 98.75209511995733
lradius 110.39243836528883
lwrist 32.16706397813538
lhand -25.693416012572545 3.121870807186747
lfingers 7.125020000000001
lthumb 0.5832839373140424 32.94525728961667
rclavicle 3.0728743657241976e-16 -4.3064985682852227e-16
rhumerus -39.55026059588523 7.711091893963095 -95.15941566206062
rradius 103.74697365496279
rwrist -19.24126114471737
rhand -18.438427382024692 37.59185324034375
rfingers 7.125020000000001
rthumb 7.858988219142076 7.555404868470557
94
root 0.5059464033735612 17.65772390800105 36.592154284151114 2.116175744574067 0.49384648065867054 -1.7182768275094615
lfemur -26.089861190937306 1.6529220128660063 -18.71155030372663
ltibia 54.35191462392892
lfoot 1.9476792254395716 -9.015906519056276
ltoes -8.63027088084709
rfemur -13.403502978436837 4.18149214249166 29.995330450853995
rtibia 53.790307109557254
rfoot -4.319267717863772 -7.144071452284406
rtoes -3.216537420453097
lowerback 13.342971917979702 0.9080952263575581 3.486709223766308
upperback -0.46186521198405006 2.9549505671829652 2.052731557642723
thorax -8.300805071651576 1.4794767156616127 -0.4129013900077395
lowerneck -18.500917346513443 -4.344136751447154 -2.1744154736755106
upperneck 13.685519000243664 -6.1745113598664965 2.8837798155181535
head 7.40248399298659 -2.423661129210239 0.6568309368691401
lclavicle 3.0724827264545893e-16 -4.3067221206564905e-16
lhumerus -50.12957011492825 -12.501793976579602 98.740961704906
lradius 110.07962756751309
lwrist 32.306796170991774
lhand -25.7413996707737 3.0933937621986605
lfingers 7.125020000000001
lthumb 0.6416582790711902 33.025221264031764
rclavicle 3.0728743657241976e-16 -4.3064985682852227e-16
rhumerus -38.53659643182236 8.149783017027435 -95.1214443910242
rradius 103.96894691832959
rwrist -19.32074682562294
rhand -18.508670575930207 37.495445834847494
rfingers 7.125020000000001
rthumb 7.904277549107711 7.577388622989492
95
root 0.5280924939141911 17.748310971176235 37.13805916038171 2.249523554571942 0.7486052206059892 -1.7087483020635172
lfemur -25.565615753741767 1.44732612201789 -18.846644917046294
ltibia 50.39604134183633
lfoot 3.8064321705581987 -9.185517019999732
ltoes -8.32629024430967
rfemur -11.478636794402382 4.548074166750721 30.393981053247195
rtibia 51.981803294409154
rfoot -2.8971962366921478 -6.9368517751977254
rtoes -2.413653191781333
lowerback 13.11449201013336 0.998151329319777 3.589753034963543
upperback -0.5671793166089092 3.024051959078596 1.9193392292513005
thorax -8.2250766504802 1.5399633892778657 -0.410696458624104
lowerneck -18.471621472532107 -4.428637943581601 -2.2119363113009536
upperneck 13.713402942154191 -6.157802351187218 2.9635586897028343
head 7.39762046584477 -2.4786336491225587 0.6483354780374828
lclavicle 3.0724827264545893e-16 -4.3067221206564905e-16
lhumerus -50.02803668886424 -12.563720366442274 98.60791163701639
lradius 110.06219428226375
lwrist 32.23526037856838
lhand -25.748886697171102 3.0938190193738713
lfingers 7.125020000000001
lthumb 0.5779465722752253 32.886452933975356
rclavicle 3.0728743657241976e-16 -4.3064985682852227e-16
rhumerus -37.86283610719899 8.535553693813721 -95.09767962268033
rradius 104.17126349488132
rwrist -19.408172291353605
rhand -18.496263324260696 37.4787441610567
rfingers 7.125020000000001
rthumb 7.904591696349682 7.515766170870218
